<?xml version="1.0" standalone="no"?>
<!DOCTYPE svg PUBLIC "-//W3C//DTD SVG 20010904//EN"
 "http://www.w3.org/TR/2001/REC-SVG-20010904/DTD/svg10.dtd">
<svg version="1.0" xmlns="http://www.w3.org/2000/svg"
 width="800.000000pt" height="600.000000pt" viewBox="0 0 800.000000 600.000000"
 preserveAspectRatio="xMidYMid meet">

<g transform="translate(0.000000,600.000000) scale(0.100000,-0.100000)"
fill="#000000" stroke="none">
<path d="M1125 5952 c-124 -54 -169 -81 -238 -142 -121 -108 -192 -250 -244
-491 -28 -131 -25 -438 5 -579 58 -268 164 -477 326 -649 60 -62 180 -152 231
-171 26 -10 29 -19 19 -69 -6 -27 -11 -32 -33 -29 -23 3 -27 -1 -33 -37 -4
-22 -19 -98 -32 -170 -14 -71 -35 -200 -47 -284 -22 -151 -24 -156 -56 -184
-39 -34 -106 -167 -128 -252 -25 -100 -36 -261 -25 -370 8 -82 8 -101 -4 -114
-58 -64 -116 -386 -86 -476 18 -56 86 -118 156 -145 75 -28 224 -38 289 -20
105 29 178 128 191 256 l7 62 40 5 c22 3 66 19 98 36 69 36 65 43 49 -99 -5
-47 -14 -152 -20 -235 -5 -82 -17 -215 -25 -295 -8 -80 -22 -221 -30 -315 -9
-93 -22 -217 -30 -274 -20 -142 -19 -167 10 -217 39 -66 85 -87 320 -143 116
-28 228 -56 250 -62 22 -5 90 -23 150 -39 347 -90 487 -126 635 -161 198 -48
408 -99 432 -106 15 -3 16 -8 7 -24 -9 -18 -5 -26 32 -60 23 -22 69 -53 102
-69 l60 -30 197 0 197 0 63 31 c37 19 69 43 79 60 14 25 19 27 62 22 78 -9
273 17 433 57 83 21 239 61 346 89 107 27 276 71 375 96 337 86 370 96 460
139 217 103 376 275 475 513 53 126 73 223 68 327 -4 103 -27 163 -86 228
l-35 38 26 58 c32 73 96 230 142 352 19 52 44 115 55 140 65 150 276 673 310
770 50 139 52 201 7 269 -40 60 -81 82 -144 79 -49 -3 -53 -1 -58 22 -9 45 -9
132 -1 286 9 149 8 152 -14 174 -20 20 -30 22 -89 17 -36 -2 -114 -20 -173
-40 l-108 -35 -34 33 c-72 68 -283 203 -436 280 l-92 46 6 37 c4 20 9 145 12
277 7 278 -5 388 -60 553 -41 120 -55 149 -118 234 -154 210 -459 382 -860
487 -235 62 -403 81 -702 81 -170 1 -235 -4 -336 -21 -226 -38 -316 -80 -389
-178 -123 -166 -215 -392 -301 -738 l-32 -133 -47 0 c-53 1 -249 24 -254 31
-2 2 0 42 5 89 26 237 -35 538 -158 783 -83 164 -223 337 -336 415 l-47 32
-338 0 -338 0 -110 -48z m465 -14 c69 -16 190 -83 253 -139 32 -28 55 -54 52
-59 -3 -4 3 -14 13 -21 16 -13 16 -12 2 6 -12 16 -9 16 11 -3 15 -13 41 -43
58 -67 25 -35 29 -45 16 -45 -9 0 -14 4 -11 8 5 9 -10 37 -21 38 -4 0 -16 4
-27 9 -21 9 -37 -10 -28 -33 3 -10 1 -13 -6 -8 -7 4 -10 18 -8 31 3 14 2 24
-2 24 -4 -1 -10 0 -14 1 -5 1 -14 3 -20 4 -7 1 -12 8 -10 15 1 7 -2 10 -6 7
-12 -7 -44 28 -35 38 4 4 -1 4 -12 0 -14 -6 -17 -4 -12 9 3 9 1 19 -5 23 -7 4
-8 3 -4 -4 4 -7 3 -12 -2 -12 -13 0 -43 35 -36 42 3 3 0 9 -7 14 -8 4 -10 3
-5 -4 10 -17 -2 -15 -32 6 -47 32 -158 73 -218 81 -108 15 -217 -6 -335 -63
l-54 -27 30 26 c51 43 162 96 233 110 70 15 162 12 242 -7z m-22 -159 c235
-107 455 -418 507 -718 54 -306 -36 -612 -233 -792 -130 -119 -225 -119 -400
-1 -102 70 -203 188 -261 304 -65 133 -86 199 -105 329 -40 266 2 567 101 738
49 84 123 151 191 171 45 13 133 0 200 -31z m312 -120 c0 -6 -4 -7 -10 -4 -5
3 -10 11 -10 16 0 6 5 7 10 4 6 -3 10 -11 10 -16z m60 -19 c0 -5 -2 -10 -4
-10 -3 0 -8 5 -11 10 -3 6 -1 10 4 10 6 0 11 -4 11 -10z m21 -23 c-10 -9 -11
-8 -5 6 3 10 9 15 12 12 3 -3 0 -11 -7 -18z m2221 -46 c285 -44 602 -149 788
-260 244 -146 339 -263 396 -487 29 -116 52 -365 38 -413 l-9 -31 -40 27 c-49
33 -95 59 -205 117 -352 182 -972 357 -1368 386 -248 18 -652 6 -817 -25 -38
-7 -72 -11 -74 -9 -7 7 80 246 126 348 53 116 122 224 161 253 65 48 176 81
367 109 134 19 464 12 637 -15z m-1207 -775 c-39 -17 -59 -47 -82 -127 -14
-45 -25 -65 -37 -67 -16 -4 -18 0 -12 29 4 19 10 61 13 95 l6 61 46 10 c25 6
57 11 71 11 24 1 23 0 -5 -12z m-405 -276 c107 -11 401 -43 545 -60 44 -5 159
-17 255 -25 96 -9 182 -18 190 -20 8 -2 119 -16 245 -30 240 -27 512 -70 662
-105 48 -11 131 -30 183 -41 132 -28 469 -133 555 -173 17 -8 64 -30 105 -49
41 -18 122 -60 180 -92 58 -32 124 -68 147 -81 81 -45 323 -207 318 -213 -4
-3 -29 -13 -57 -21 l-50 -15 -37 36 c-82 77 -342 199 -641 299 -14 5 -56 20
-95 35 -38 14 -98 35 -132 46 -34 11 -65 24 -68 30 -4 5 -10 7 -15 4 -5 -3
-21 0 -37 6 -15 6 -41 13 -58 15 -16 2 -66 12 -110 23 -76 19 -131 29 -485 85
-299 48 -515 73 -745 87 -227 14 -270 10 -355 -29 -36 -16 -83 -35 -105 -42
-22 -7 -44 -16 -50 -20 -5 -4 -27 -17 -47 -29 -46 -25 -48 -16 -9 64 32 67 63
101 83 89 7 -4 10 -3 5 1 -4 5 5 21 20 37 14 15 24 31 20 34 -3 3 -93 8 -199
10 -185 3 -370 -9 -413 -27 -11 -4 -39 -9 -62 -11 -44 -4 -44 -3 -7 47 12 17
35 58 50 93 l27 63 41 -5 c23 -3 88 -10 146 -16z m2577 -74 c59 -30 140 -77
178 -103 l70 -48 2 -90 c1 -75 0 -84 -8 -51 -10 43 -36 79 -50 70 -5 -3 -9 0
-9 7 0 8 -5 6 -13 -5 -12 -16 -15 -16 -62 2 -44 17 -47 20 -26 27 17 5 20 10
12 18 -6 6 -11 14 -11 18 0 12 50 3 63 -11 8 -9 9 -11 0 -6 -6 3 -19 -2 -29
-11 -19 -19 -5 -30 24 -17 9 4 23 6 30 5 10 -2 11 2 3 16 -17 32 -84 90 -171
147 -159 105 -160 111 -3 32z m-3167 -196 c0 -5 -5 -10 -11 -10 -5 0 -7 5 -4
10 3 6 8 10 11 10 2 0 4 -4 4 -10z m-51 -88 c-17 -27 -93 -75 -179 -114 -71
-31 -81 -33 -185 -32 -71 0 -121 5 -140 14 -29 13 -27 14 55 21 104 8 275 51
343 86 33 16 53 21 55 14 2 -6 8 -11 14 -11 6 0 8 7 5 14 -4 10 -1 13 7 10 8
-3 17 -1 21 5 3 6 8 11 11 11 2 0 -1 -8 -7 -18z m1006 -152 c10 -11 26 -22 35
-25 10 -3 21 -12 24 -20 3 -9 0 -12 -8 -9 -7 3 -19 -3 -27 -12 -12 -16 -12
-17 3 -11 10 3 17 3 15 -1 -1 -4 8 -20 21 -36 15 -19 22 -23 22 -13 0 9 4 18
9 21 5 4 7 -4 4 -16 -3 -16 -2 -19 4 -10 12 16 32 -5 63 -68 41 -82 72 -102
90 -56 21 55 -12 161 -78 255 l-17 24 240 -6 c311 -9 528 -23 640 -43 50 -8
99 -16 110 -16 11 0 15 -2 8 -5 -7 -2 -9 -10 -7 -18 5 -11 -1 -12 -32 -3 -21
5 -54 7 -74 4 -19 -3 -44 -7 -55 -8 -11 -2 -42 -23 -69 -48 -26 -25 -53 -44
-58 -42 -5 1 -7 -2 -3 -8 3 -5 -7 -29 -24 -53 -27 -39 -70 -157 -84 -234 -13
-67 47 -29 113 71 23 37 47 63 53 59 6 -3 7 -1 3 5 -4 7 -3 12 1 12 5 0 13 10
18 22 16 35 73 68 117 68 32 0 39 -3 36 -17 -2 -12 -16 -20 -41 -24 -55 -9
-58 -20 -4 -13 46 7 48 5 92 -38 42 -42 45 -49 45 -97 0 -42 -5 -57 -25 -76
-32 -33 -56 -31 -124 7 -78 43 -91 57 -92 92 0 30 -1 30 -20 -14 -28 -61 -49
-155 -49 -215 0 -109 55 -242 126 -305 35 -30 41 -32 95 -28 96 7 163 74 218
218 67 174 63 351 -13 497 -8 17 -39 56 -67 87 -41 45 -49 60 -40 69 10 9 11
8 5 -6 -5 -13 -2 -16 12 -10 12 4 15 3 10 -5 -5 -8 -2 -10 8 -6 9 3 13 11 9
17 -4 6 0 8 8 5 8 -3 23 -2 34 2 14 5 5 9 -32 14 -29 3 -54 10 -57 15 -5 8
123 -13 320 -53 45 -9 114 -27 154 -41 41 -14 82 -25 92 -25 11 0 16 -4 13
-10 -3 -5 0 -7 9 -4 8 3 83 -26 168 -63 171 -77 438 -243 438 -273 0 -27 -40
-63 -121 -110 -41 -24 -96 -58 -122 -76 -95 -65 -601 -303 -615 -289 -3 3 0
30 7 60 21 94 -3 98 -115 20 -44 -30 -136 -90 -206 -134 l-126 -80 -63 15
c-34 8 -98 34 -143 57 -92 49 -314 183 -336 203 -12 12 -12 14 4 14 25 0 90
37 104 60 25 40 -70 108 -174 125 -58 9 -77 -11 -72 -77 1 -26 1 -47 -2 -45
-3 1 -35 18 -71 36 l-66 34 -12 74 c-17 101 -55 225 -91 299 -22 46 -38 65
-61 74 -43 18 -82 17 -114 -4 -25 -16 -95 -144 -95 -174 0 -7 -5 -22 -10 -32
-9 -18 -14 -16 -78 22 -37 22 -68 42 -70 43 -2 1 6 18 17 36 29 51 76 193 96
289 9 47 19 88 22 93 2 4 28 7 57 7 40 0 57 -5 71 -20z m-220 -42 c-20 -131
-92 -308 -124 -308 -10 0 -44 16 -77 36 -32 20 -74 43 -91 50 -29 13 -32 17
-23 39 17 44 87 141 117 160 26 18 162 63 191 64 11 1 12 -9 7 -41z m-696
-113 c44 -27 80 -53 81 -57 0 -8 -114 -210 -142 -250 -18 -26 -25 -28 -83 -28
-57 0 -68 -3 -99 -31 -47 -40 -75 -119 -83 -229 -7 -103 -15 -123 -38 -100
-13 14 -14 24 -4 70 7 30 13 123 14 205 2 147 26 329 46 341 29 17 -4 24 -118
24 -114 0 -239 11 -284 25 -23 7 -13 68 10 61 108 -32 201 -32 371 -2 152 27
190 39 190 60 0 9 10 5 29 -12 16 -15 65 -49 110 -77z m254 -161 c141 -92 367
-220 617 -351 107 -56 308 -169 366 -206 22 -13 68 -40 104 -59 36 -20 124
-68 195 -108 293 -163 328 -180 388 -180 30 0 74 -7 97 -15 73 -26 108 -20
241 44 221 105 343 156 904 380 503 202 1112 431 1143 431 4 0 7 -84 7 -187 0
-104 2 -194 5 -201 4 -10 -74 -42 -285 -117 -310 -110 -465 -166 -665 -240
-69 -25 -206 -74 -305 -110 -335 -118 -590 -215 -690 -263 -99 -46 -101 -47
-200 -47 -126 1 -207 24 -348 102 -56 31 -141 77 -188 103 -151 81 -860 421
-1279 612 -173 80 -220 105 -220 120 0 6 -7 8 -15 5 -11 -5 -113 40 -133 58
-2 2 13 24 32 50 20 26 48 68 63 93 36 63 83 132 89 132 3 0 38 -21 77 -46z
m-637 -17 c7 10 14 13 14 6 0 -6 -9 -18 -20 -26 -18 -12 -20 -20 -13 -58 l8
-44 6 45 6 45 1 -40 c1 -22 -5 -49 -13 -59 -8 -11 -15 -25 -15 -30 0 -6 5 -4
11 4 11 15 5 -181 -8 -276 l-6 -44 -27 17 c-23 13 -27 20 -20 38 4 12 11 68
15 126 7 113 22 249 33 289 5 20 7 21 10 7 4 -18 4 -18 18 0z m1303 -131 c16
-19 7 -62 -15 -70 -21 -8 -68 15 -72 35 -1 8 7 27 18 42 23 28 42 26 69 -7z
m151 -46 c38 -38 19 -100 -30 -100 -48 0 -80 20 -80 49 0 64 67 94 110 51z
m893 -83 c16 -25 3 -71 -24 -86 -24 -13 -29 -13 -53 2 -53 35 -18 117 44 102
14 -4 28 -12 33 -18z m-2799 -81 c-3 -8 -1 -17 5 -21 20 -12 13 -63 -11 -76
-21 -11 -21 -10 -15 42 4 30 7 68 8 84 0 28 1 29 9 7 5 -12 7 -28 4 -36z m765
20 c46 -24 48 -26 65 -98 43 -176 60 -595 31 -762 -9 -48 -22 -103 -29 -121
-26 -61 -76 -68 -123 -17 l-24 26 6 -70 c3 -38 12 -134 20 -214 21 -215 28
-478 20 -719 l-8 -214 -95 189 c-52 104 -92 176 -89 159 48 -271 50 -296 51
-460 1 -254 -16 -284 -74 -135 -21 54 -37 84 -42 77 -4 -7 -8 -7 -9 -2 -1 6
-5 -6 -10 -25 -11 -49 -1 104 17 265 8 72 19 198 24 280 5 83 18 245 29 360
11 116 25 280 31 365 6 85 15 188 21 230 10 83 22 229 44 551 26 369 34 390
144 335z m-473 -187 c74 -28 164 -114 189 -182 17 -46 17 -49 0 -88 -25 -55
-74 -79 -157 -79 -107 1 -204 64 -254 166 -29 60 -44 58 -44 -6 0 -53 33 -115
91 -171 82 -79 115 -92 246 -93 61 -1 109 3 106 7 -3 5 -12 6 -22 3 -12 -5
-11 -2 3 9 26 20 50 20 42 0 -3 -8 -1 -15 4 -15 6 0 10 15 11 33 0 17 3 26 6
18 9 -23 -28 -180 -51 -214 -12 -18 -46 -45 -76 -62 -47 -26 -65 -30 -130 -30
-205 1 -346 106 -394 295 l-14 55 -7 -67 c-9 -82 6 -153 44 -205 37 -52 44
-64 34 -61 -4 2 -10 -1 -12 -7 -12 -26 192 -152 230 -142 11 3 17 1 13 -4 -3
-5 -3 -9 0 -9 2 0 12 -3 22 -7 10 -3 15 -2 12 3 -4 5 7 9 23 9 35 0 36 -3 7
-14 -21 -8 -21 -8 5 -13 14 -3 24 -1 21 3 -3 5 2 9 11 9 9 0 13 -4 10 -10 -3
-5 -4 -10 -1 -10 14 0 14 20 0 34 -8 9 -11 16 -5 16 23 0 66 -62 58 -85 -3 -7
-34 -27 -68 -44 -88 -44 -152 -43 -247 4 -123 62 -182 151 -203 310 -23 181 3
384 65 489 42 71 132 141 216 167 52 15 158 10 216 -12z m5075 -49 c39 -21 39
-21 -279 -805 -60 -149 -116 -293 -126 -320 -9 -28 -43 -115 -75 -195 -41
-103 -62 -144 -72 -141 -8 3 -75 7 -149 10 -74 2 -121 7 -105 10 22 4 34 15
45 39 14 33 14 33 67 26 36 -4 53 -3 53 5 0 6 -7 11 -15 11 -8 0 -15 5 -15 10
0 6 14 10 30 10 19 0 30 -5 30 -14 0 -19 25 -27 39 -13 8 8 11 7 11 -4 0 -8
-5 -20 -11 -26 -6 -6 -9 -17 -7 -24 2 -7 29 50 60 127 31 76 104 258 163 404
128 317 124 306 89 250 -15 -25 -48 -70 -74 -100 -26 -30 -55 -68 -65 -85 -60
-97 -118 -146 -164 -139 -44 8 -48 17 -40 101 18 178 153 462 315 659 98 120
50 130 -211 43 -241 -80 -301 -99 -365 -113 -85 -19 -90 -12 -9 11 35 10 233
75 439 144 206 70 385 128 398 128 13 1 32 -4 43 -9z m-1046 -330 c-3 -5 -12
-10 -18 -10 -7 0 -6 4 3 10 19 12 23 12 15 0z m-3863 -422 c-7 -77 -38 -88
-91 -34 l-33 34 45 6 c34 5 70 21 82 36 0 0 -1 -19 -3 -42z m-209 -15 c-7 -2
-19 -2 -25 0 -7 3 -2 5 12 5 14 0 19 -2 13 -5z m2882 -43 c-3 -5 -11 -10 -16
-10 -6 0 -7 5 -4 10 3 6 11 10 16 10 6 0 7 -4 4 -10z m-2962 -255 c-3 -9 -8
-14 -10 -11 -3 3 -2 9 2 15 9 16 15 13 8 -4z m-475 -90 c0 -29 0 -29 -8 -5 -4
14 -8 36 -8 50 -1 23 0 23 8 5 5 -11 8 -33 8 -50z m5215 40 c-3 -9 -8 -14 -10
-11 -3 3 -2 9 2 15 9 16 15 13 8 -4z m-72 -168 c-8 -8 -11 -5 -11 9 0 27 14
41 18 19 2 -9 -1 -22 -7 -28z m-21 -52 c0 -2 -10 -9 -22 -15 -22 -11 -22 -10
-4 4 21 17 26 19 26 11z m-20 -272 c75 -28 94 -43 123 -98 31 -58 29 -183 -3
-290 -13 -44 -27 -84 -30 -90 -4 -5 -13 -28 -20 -50 -15 -44 -65 -126 -103
-167 -58 -62 -233 -114 -353 -105 -81 6 -123 24 -176 75 -54 51 -63 87 -44
163 21 82 84 214 134 281 88 120 252 233 367 254 38 7 38 7 15 17 -14 6 -78
11 -142 11 -64 0 -114 3 -112 6 12 11 164 27 219 22 33 -2 89 -16 125 -29z
m-600 3 c0 -2 -8 -10 -17 -17 -16 -13 -17 -12 -4 4 13 16 21 21 21 13z m-149
-179 c-10 -9 -11 -8 -5 6 3 10 9 15 12 12 3 -3 0 -11 -7 -18z m-3334 -309 c-2
-13 -4 -3 -4 22 0 25 2 35 4 23 2 -13 2 -33 0 -45z m-110 -145 c-3 -10 -5 -4
-5 12 0 17 2 24 5 18 2 -7 2 -21 0 -30z m-117 -138 c24 -29 24 -29 2 -10 -13
11 -28 29 -34 40 -11 21 -8 18 32 -30z m125 -73 c-5 -6 -74 18 -80 27 -2 5 15
1 40 -8 24 -8 42 -17 40 -19z"/>
<path d="M1940 5681 c0 -6 4 -13 10 -16 6 -3 7 1 4 9 -7 18 -14 21 -14 7z"/>
<path d="M2418 4512 c12 -8 72 -4 72 4 0 2 -19 4 -42 4 -26 0 -38 -4 -30 -8z"/>
<path d="M2500 4510 c0 -5 7 -10 16 -10 8 0 12 5 9 10 -3 6 -10 10 -16 10 -5
0 -9 -4 -9 -10z"/>
<path d="M3810 3991 c0 -6 4 -13 10 -16 6 -3 7 1 4 9 -7 18 -14 21 -14 7z"/>
<path d="M3916 3965 c-4 -12 -1 -16 14 -13 24 3 28 22 7 26 -8 2 -17 -4 -21
-13z"/>
<path d="M3810 3940 c0 -5 5 -10 10 -10 6 0 10 5 10 10 0 6 -4 10 -10 10 -5 0
-10 -4 -10 -10z"/>
<path d="M3728 3933 c7 -3 16 -2 19 1 4 3 -2 6 -13 5 -11 0 -14 -3 -6 -6z"/>
<path d="M3794 3893 c10 -11 37 -12 30 -2 -3 5 -12 9 -21 9 -9 0 -13 -3 -9 -7z"/>
<path d="M4850 3750 c0 -5 5 -10 11 -10 5 0 7 5 4 10 -3 6 -8 10 -11 10 -2 0
-4 -4 -4 -10z"/>
<path d="M4825 3730 c3 -5 8 -10 11 -10 2 0 4 5 4 10 0 6 -5 10 -11 10 -5 0
-7 -4 -4 -10z"/>
<path d="M4925 3700 c-3 -6 1 -7 9 -4 18 7 21 14 7 14 -6 0 -13 -4 -16 -10z"/>
<path d="M5075 3590 c-3 -5 -1 -10 4 -10 6 0 11 5 11 10 0 6 -2 10 -4 10 -3 0
-8 -4 -11 -10z"/>
<path d="M5045 3460 c-3 -5 -1 -10 4 -10 6 0 11 5 11 10 0 6 -2 10 -4 10 -3 0
-8 -4 -11 -10z"/>
<path d="M2139 3526 c12 -14 10 -16 -10 -17 l-24 0 25 -11 c14 -7 61 -33 105
-58 44 -26 215 -116 380 -200 165 -84 408 -209 540 -278 302 -158 606 -305
614 -297 12 12 -52 53 -203 130 -83 43 -164 85 -181 95 -28 17 -767 404 -1055
553 -74 39 -151 77 -170 84 -31 14 -33 14 -21 -1z"/>
<path d="M6175 3413 c-215 -84 -557 -221 -715 -286 -107 -44 -231 -92 -275
-108 -204 -71 -398 -149 -390 -157 3 -3 55 14 117 36 62 23 210 78 328 121
118 44 337 128 485 188 420 170 487 195 532 201 24 2 40 8 37 13 -8 14 -75 10
-119 -8z"/>
<path d="M5985 3174 c-154 -58 -495 -185 -635 -236 -71 -26 -150 -47 -220 -57
-68 -11 -318 -91 -430 -138 -8 -3 -18 -6 -22 -5 -4 1 -10 -8 -13 -19 -6 -17
-9 -18 -23 -7 -13 11 -14 11 -7 -1 6 -11 4 -13 -9 -8 -9 4 -15 3 -11 -2 3 -5
-1 -12 -7 -14 -8 -4 -7 -6 4 -6 18 -1 481 148 728 234 386 135 759 276 804
305 48 31 24 24 -159 -46z"/>
<path d="M4348 2773 c7 -3 16 -2 19 1 4 3 -2 6 -13 5 -11 0 -14 -3 -6 -6z"/>
<path d="M4550 2664 l-25 -15 25 7 c14 3 29 10 35 15 15 14 -7 10 -35 -7z"/>
<path d="M3830 2662 c0 -37 36 -85 84 -113 28 -16 54 -29 59 -29 19 0 2 18
-47 49 -30 18 -63 49 -74 70 -12 20 -22 30 -22 23z"/>
<path d="M5888 1723 c7 -3 16 -2 19 1 4 3 -2 6 -13 5 -11 0 -14 -3 -6 -6z"/>
<path d="M5815 1700 c-3 -5 -2 -10 4 -10 5 0 13 5 16 10 3 6 2 10 -4 10 -5 0
-13 -4 -16 -10z"/>
<path d="M1566 2353 c-6 -14 20 -43 37 -43 8 0 7 3 -2 9 -11 7 -9 11 8 20 11
7 21 16 21 21 0 14 -59 7 -64 -7z"/>
<path d="M6031 1324 c0 -11 3 -14 6 -6 3 7 2 16 -1 19 -3 4 -6 -2 -5 -13z"/>
</g>
</svg>
